# xmcd CD database file
#
# Track frame offsets:
#	150
#	21938
#	40858
#	60870
#	79375
#	100143
#	121808
#	138705
#	155575
#	182390
#	209425
#
# Disc length: 3119 seconds
#
# Revision: 0
# Processed by: cddbd v1.5.1PL0 Copyright (c) Steve Scherf et al.
# Submitted via: CDex 1.51
#
DISCID=8e0c2d0b
DTITLE=THE BACK HORN - ヘッドフォンチルドレン
DYEAR=2005
DGENRE=Rock
TTITLE0=扉
TTITLE1=運命複雑骨折
TTITLE2=コバルトブルー
TTITLE3=墓石フィーバー
TTITLE4=夢の花
TTITLE5=旅人
TTITLE6=パッパラ
TTITLE7=上海狂騒曲
TTITLE8=ヘッドフォンチルドレン
TTITLE9=キズナソング
TTITLE10=奇跡
EXTD=YEAR: 2005
EXTT0=
EXTT1=
EXTT2=
EXTT3=
EXTT4=
EXTT5=
EXTT6=
EXTT7=
EXTT8=
EXTT9=
EXTT10=
PLAYORDER=
